<?xml version="1.0" encoding="utf-8" standalone="no"?>
<!DOCTYPE svg PUBLIC "-//W3C//DTD SVG 1.1//EN"
  "http://www.w3.org/Graphics/SVG/1.1/DTD/svg11.dtd">
<svg xmlns:xlink="http://www.w3.org/1999/xlink" width="379.44pt" height="26.558437pt" viewBox="0 0 379.44 26.558437" xmlns="http://www.w3.org/2000/svg" version="1.1">
 <metadata>
  <rdf:RDF xmlns:dc="http://purl.org/dc/elements/1.1/" xmlns:cc="http://creativecommons.org/ns#" xmlns:rdf="http://www.w3.org/1999/02/22-rdf-syntax-ns#">
   <cc:Work>
    <dc:type rdf:resource="http://purl.org/dc/dcmitype/StillImage"/>
    <dc:date>2026-10-02T13:07:07.251999</dc:date>
    <dc:format>image/svg+xml</dc:format>
    <dc:creator>
     <cc:Agent>
      <dc:title>Matplotlib v3.10.9, https://matplotlib.org/</dc:title>
     </cc:Agent>
    </dc:creator>
   </cc:Work>
  </rdf:RDF>
 </metadata>
 <defs>
  <style type="text/css">*{stroke-linejoin: round; stroke-linecap: butt}</style>
 </defs>
 <g id="figure_1">
  <g id="patch_1">
   <path d="M 0 26.558437 
L 379.44 26.558437 
L 379.44 -0 
L 0 -0 
z
" style="fill: #ffffff"/>
  </g>
  <g id="axes_1">
   <g id="patch_2">
    <path d="M 1.44 25.118437 
L 43.28 25.118437 
L 43.28 13.038437 
L 1.44 13.038437 
z
" clip-path="url(#p2fa8de7699)" style="fill: #332288"/>
   </g>
   <g id="patch_3">
    <path d="M 43.28 25.118437 
L 85.12 25.118437 
L 85.12 13.038437 
L 43.28 13.038437 
z
" clip-path="url(#p2fa8de7699)" style="fill: #88ccee"/>
   </g>
   <g id="patch_4">
    <path d="M 85.12 25.118437 
L 126.96 25.118437 
L 126.96 13.038437 
L 85.12 13.038437 
z
" clip-path="url(#p2fa8de7699)" style="fill: #44aa99"/>
   </g>
   <g id="patch_5">
    <path d="M 126.96 25.118437 
L 168.8 25.118437 
L 168.8 13.038437 
L 126.96 13.038437 
z
" clip-path="url(#p2fa8de7699)" style="fill: #117733"/>
   </g>
   <g id="patch_6">
    <path d="M 168.8 25.118437 
L 210.64 25.118437 
L 210.64 13.038437 
L 168.8 13.038437 
z
" clip-path="url(#p2fa8de7699)" style="fill: #999933"/>
   </g>
   <g id="patch_7">
    <path d="M 210.64 25.118437 
L 252.48 25.118437 
L 252.48 13.038437 
L 210.64 13.038437 
z
" clip-path="url(#p2fa8de7699)" style="fill: #ddcc77"/>
   </g>
   <g id="patch_8">
    <path d="M 252.48 25.118437 
L 294.32 25.118437 
L 294.32 13.038437 
L 252.48 13.038437 
z
" clip-path="url(#p2fa8de7699)" style="fill: #cc6677"/>
   </g>
   <g id="patch_9">
    <path d="M 294.32 25.118437 
L 336.16 25.118437 
L 336.16 13.038437 
L 294.32 13.038437 
z
" clip-path="url(#p2fa8de7699)" style="fill: #882255"/>
   </g>
   <g id="patch_10">
    <path d="M 336.16 25.118437 
L 378 25.118437 
L 378 13.038437 
L 336.16 13.038437 
z
" clip-path="url(#p2fa8de7699)" style="fill: #aa4499"/>
   </g>
   <g id="text_1">
    <!-- Tol Muted -->
    <g transform="translate(1.44 9.038438) scale(0.1 -0.1)">
     <defs>
      <path id="DejaVuSans-54" d="M -19 4666 
L 3928 4666 
L 3928 4134 
L 2272 4134 
L 2272 0 
L 1638 0 
L 1638 4134 
L -19 4134 
L -19 4666 
z
" transform="scale(0.015625)"/>
      <path id="DejaVuSans-6f" d="M 1959 3097 
Q 1497 3097 1228 2736 
Q 959 2375 959 1747 
Q 959 1119 1226 758 
Q 1494 397 1959 397 
Q 2419 397 2687 759 
Q 2956 1122 2956 1747 
Q 2956 2369 2687 2733 
Q 2419 3097 1959 3097 
z
M 1959 3584 
Q 2709 3584 3137 3096 
Q 3566 2609 3566 1747 
Q 3566 888 3137 398 
Q 2709 -91 1959 -91 
Q 1206 -91 779 398 
Q 353 888 353 1747 
Q 353 2609 779 3096 
Q 1206 3584 1959 3584 
z
" transform="scale(0.015625)"/>
      <path id="DejaVuSans-6c" d="M 603 4863 
L 1178 4863 
L 1178 0 
L 603 0 
L 603 4863 
z
" transform="scale(0.015625)"/>
      <path id="DejaVuSans-20" transform="scale(0.015625)"/>
      <path id="DejaVuSans-4d" d="M 628 4666 
L 1569 4666 
L 2759 1491 
L 3956 4666 
L 4897 4666 
L 4897 0 
L 4281 0 
L 4281 4097 
L 3078 897 
L 2444 897 
L 1241 4097 
L 1241 0 
L 628 0 
L 628 4666 
z
" transform="scale(0.015625)"/>
      <path id="DejaVuSans-75" d="M 544 1381 
L 544 3500 
L 1119 3500 
L 1119 1403 
Q 1119 906 1312 657 
Q 1506 409 1894 409 
Q 2359 409 2629 706 
Q 2900 1003 2900 1516 
L 2900 3500 
L 3475 3500 
L 3475 0 
L 2900 0 
L 2900 538 
Q 2691 219 2414 64 
Q 2138 -91 1772 -91 
Q 1169 -91 856 284 
Q 544 659 544 1381 
z
M 1991 3584 
L 1991 3584 
z
" transform="scale(0.015625)"/>
      <path id="DejaVuSans-74" d="M 1172 4494 
L 1172 3500 
L 2356 3500 
L 2356 3053 
L 1172 3053 
L 1172 1153 
Q 1172 725 1289 603 
Q 1406 481 1766 481 
L 2356 481 
L 2356 0 
L 1766 0 
Q 1100 0 847 248 
Q 594 497 594 1153 
L 594 3053 
L 172 3053 
L 172 3500 
L 594 3500 
L 594 4494 
L 1172 4494 
z
" transform="scale(0.015625)"/>
      <path id="DejaVuSans-65" d="M 3597 1894 
L 3597 1613 
L 953 1613 
Q 991 1019 1311 708 
Q 1631 397 2203 397 
Q 2534 397 2845 478 
Q 3156 559 3463 722 
L 3463 178 
Q 3153 47 2828 -22 
Q 2503 -91 2169 -91 
Q 1331 -91 842 396 
Q 353 884 353 1716 
Q 353 2575 817 3079 
Q 1281 3584 2069 3584 
Q 2775 3584 3186 3129 
Q 3597 2675 3597 1894 
z
M 3022 2063 
Q 3016 2534 2758 2815 
Q 2500 3097 2075 3097 
Q 1594 3097 1305 2825 
Q 1016 2553 972 2059 
L 3022 2063 
z
" transform="scale(0.015625)"/>
      <path id="DejaVuSans-64" d="M 2906 2969 
L 2906 4863 
L 3481 4863 
L 3481 0 
L 2906 0 
L 2906 525 
Q 2725 213 2448 61 
Q 2172 -91 1784 -91 
Q 1150 -91 751 415 
Q 353 922 353 1747 
Q 353 2572 751 3078 
Q 1150 3584 1784 3584 
Q 2172 3584 2448 3432 
Q 2725 3281 2906 2969 
z
M 947 1747 
Q 947 1113 1208 752 
Q 1469 391 1925 391 
Q 2381 391 2643 752 
Q 2906 1113 2906 1747 
Q 2906 2381 2643 2742 
Q 2381 3103 1925 3103 
Q 1469 3103 1208 2742 
Q 947 2381 947 1747 
z
" transform="scale(0.015625)"/>
     </defs>
     <use xlink:href="#DejaVuSans-54"/>
     <use xlink:href="#DejaVuSans-6f" transform="translate(44.083984 0)"/>
     <use xlink:href="#DejaVuSans-6c" transform="translate(105.265625 0)"/>
     <use xlink:href="#DejaVuSans-20" transform="translate(133.048828 0)"/>
     <use xlink:href="#DejaVuSans-4d" transform="translate(164.835938 0)"/>
     <use xlink:href="#DejaVuSans-75" transform="translate(251.115234 0)"/>
     <use xlink:href="#DejaVuSans-74" transform="translate(314.494141 0)"/>
     <use xlink:href="#DejaVuSans-65" transform="translate(353.703125 0)"/>
     <use xlink:href="#DejaVuSans-64" transform="translate(415.226562 0)"/>
    </g>
   </g>
  </g>
 </g>
 <defs>
  <clipPath id="p2fa8de7699">
   <rect x="1.44" y="13.038438" width="376.56" height="12.08"/>
  </clipPath>
 </defs>
</svg>
